HIERARCHY
ROOT ui
{
	 OFFSET 0 0 0
	 CHANNELS 3 XPosition YPosition Z Position
	 EndSite
	 {
	 OFFSET 0 -1 0
	 }
}
ROOT li
{
	 OFFSET 0 0 0
	 CHANNELS 3 XPosition YPosition Z Position
	 EndSite
	 {
	 OFFSET 0 -1 0
	 }
}
ROOT ul
{
	 OFFSET 0 0 0
	 CHANNELS 3 XPosition YPosition Z Position
	 EndSite
	 {
	 OFFSET 0 -1 0
	 }
}
ROOT ll
{
	 OFFSET 0 0 0
	 CHANNELS 3 XPosition YPosition Z Position
	 EndSite
	 {
	 OFFSET 0 -1 0
	 }
}
ROOT tt
{
	 OFFSET 0 0 0
	 CHANNELS 3 XPosition YPosition Z Position
	 EndSite
	 {
	 OFFSET 0 -1 0
	 }
}
ROOT tb
{
	 OFFSET 0 0 0
	 CHANNELS 3 XPosition YPosition Z Position
	 EndSite
	 {
	 OFFSET 0 -1 0
	 }
}
ROOT td
{
	 OFFSET 0 0 0
	 CHANNELS 3 XPosition YPosition Z Position
	 EndSite
	 {
	 OFFSET 0 -1 0
	 }
}
ROOT v
{
	 OFFSET 0 0 0
	 CHANNELS 3 XPosition YPosition Z Position
	 EndSite
	 {
	 OFFSET 0 -1 0
	 }
}
ROOT bn
{
	 OFFSET 0 0 0
	 CHANNELS 3 XPosition YPosition Z Position
	 EndSite
	 {
	 OFFSET 0 -1 0
	 }
}
MOTION
Frames: 19
Frame Time: 0.002
-0.00483172607421875	2.632629871368408E-4	0		0.4521406860351562	-2.302233154296875	0		-1.03723095703125	0.22279609680175783	0		-0.6975107421875	-2.54925830078125	0		2.028455810546875	0.17503068542480468	0		3.6392431640625	0.5610479736328124	0		4.81722998046875	0.13429658508300782	0		5.95706005859375	0.43554867553710935	0		-0.0510351676940918	5.9616826171875	0		
-0.004768609046936035	1.2641100585460664E-4	0		0.44131707763671874	-2.2961357421875	0		-1.0404483642578124	0.20973667907714844	0		-0.6394835815429688	-2.550652587890625	0		2.0254122314453125	0.1699426574707031	0		3.643462646484375	0.5677905883789063	0		4.81562158203125	0.14915774536132811	0		5.95969287109375	0.4613101806640625	0		-0.061244518280029296	5.946767578125	0		
-0.004722082138061524	-4.832999780774117E-6	0		0.4294754638671875	-2.290010986328125	0		-1.0363135986328125	0.21352711486816406	0		-0.6764306640625	-2.5489716796875	0		2.02546044921875	0.16979219055175782	0		3.6435146484375	0.5676248168945313	0		4.81151806640625	0.1420697021484375	0		5.963568359375	0.45303720092773436	0		-0.06407560729980469	5.94970166015625	0		
-0.007758790969848633	-0.0030638020038604736	0		0.446059814453125	-2.309507080078125	0		-1.0403695068359375	0.2095015869140625	0		-0.6455908203125	-2.556763671875	0		2.062459716796875	0.16783815002441407	0		3.616707763671875	0.57504638671875	0		4.822544921875	0.14165151977539062	0		5.9636015625	0.45284609985351565	0		-0.07628423309326172	5.93584228515625	0		
-0.004685207843780518	-2.4814300239086153E-4	0		0.4231957092285156	-2.30213134765625	0		-1.0084526977539063	0.20470016479492187	0		-0.6995382080078125	-2.55269580078125	0		2.038345703125	0.16221705627441407	0		3.6355673828125	0.5674664306640625	0		4.8157099609375	0.14861915588378907	0		5.96878955078125	0.4605362854003906	0		-0.19342913818359375	5.9262802734375	0		
0.005521263122558594	0.00942067813873291	0		0.45418438720703125	-2.300926025390625	0		-0.9984830322265625	0.2033882293701172	0		-0.6585123901367187	-2.54969091796875	0		2.050619873046875	0.17480766296386718	0		3.6528251953125	0.578921630859375	0		4.81985498046875	0.15533987426757812	0		5.9761572265625	0.4771700439453125	0		-0.04567684173583984	5.9549560546875	0		
-0.004721076011657715	-4.6078601479530336E-4	0		0.4251195373535156	-2.300403564453125	0		-1.0084811401367189	0.20452395629882814	0		-0.66167578125	-2.553713623046875	0		2.050596923828125	0.1746649169921875	0		3.63968212890625	0.5730328369140625	0		4.8260048828125	0.16300944519042967	0		5.976140625	0.4769498291015625	0		-0.1932499084472656	5.92607470703125	0		
-0.004762627124786377	-5.549780130386353E-4	0		0.4292439880371094	-2.290597412109375	0		-1.00262890625	0.19932229614257813	0		-0.6746404418945312	-2.54751025390625	0		2.056207763671875	0.15839703369140626	0		3.635523193359375	0.5669454956054687	0		4.837986328125	0.1635437469482422	0		5.9751318359375	0.47774261474609375	0		-0.059730453491210936	5.9440703125	0		
-0.004817063808441162	-6.419519782066345E-4	0		0.4011402587890625	-2.290081787109375	0		-1.11962841796875	0.2028218536376953	0		-0.6639349975585938	-2.55581982421875	0		2.060243896484375	0.16217108154296875	0		3.639328369140625	0.55968359375	0		4.84275927734375	0.15523075866699218	0		5.98026318359375	0.48539797973632814	0		-0.0596395149230957	5.943984375	0		
-0.004881072044372559	-7.224990129470826E-4	0		0.4476341552734375	-2.308198974609375	0		-1.063854248046875	0.1945434112548828	0		-0.68714599609375	-2.55937841796875	0		2.0360582275390624	0.1565658416748047	0		3.639278564453125	0.5595106201171876	0		4.8468515625	0.16193789672851563	0		5.98820947265625	0.484990234375	0		-0.0585749397277832	5.9428837890625	0		
-0.004950127124786377	-7.972540259361267E-4	0		0.41586569213867186	-2.291586669921875	0		-1.092933349609375	0.19413226318359375	0		-0.6590669555664063	-2.550052978515625	0		2.07296240234375	0.1546275177001953	0		3.635093017578125	0.5534329833984375	0		4.8419638671875	0.1698482666015625	0		5.9833515625	0.49387149047851564	0		-0.058515625	5.941810546875	0		
-0.005018479824066162	-8.666660189628601E-4	0		0.43856005859375	-2.300169921875	0		-1.05809326171875	0.18932122802734375	0		-0.6941231689453125	-2.546337890625	0		2.06978857421875	0.14957450866699218	0		3.653165771484375	0.558877685546875	0		4.8425693359375	0.15464218139648436	0		5.9864921875	0.5025878295898437	0		-0.058438926696777346	5.9417421875	0		
-0.005079141139984131	-9.30990993976593E-4	0		0.409475830078125	-2.298606689453125	0		-1.0912515869140624	0.1850081329345703	0		-0.6516044311523438	-2.56332861328125	0		2.05742626953125	0.13573011779785157	0		3.652853759765625	0.5467326049804687	0		4.837689453125	0.1625750732421875	0		5.98644287109375	0.502386474609375	0		-0.05738594055175781	5.94065771484375	0		
0.01986968421936035	-0.0015407370328903197	0		0.43631027221679686	-2.302268310546875	0		-1.0523023681640624	0.18411273193359376	0		-0.689671630859375	-2.561537841796875	0		2.054296630859375	0.1316949462890625	0		3.643822265625	0.5467953491210937	0		4.8434921875	0.15528457641601562	0		5.99440625	0.5020263366699219	0		-0.05828510284423828	5.94162109375	0		
-0.005146261215209961	-0.0010442179441452026	0		0.4191177978515625	-2.307954345703125	0		-1.120326416015625	0.1845768585205078	0		-0.676898193359375	-2.568864013671875	0		2.055034423828125	0.12058369445800782	0		3.634658203125	0.539874267578125	0		4.84245166015625	0.15416361999511718	0		5.99157080078125	0.5099260864257813	0		-0.057219974517822264	5.94054638671875	0		
0.0367843017578125	-0.005017796039581299	0		0.4511907653808594	-2.303716064453125	0		-1.065285888671875	0.18533299255371094	0		-0.6707789306640625	-2.562035400390625	0		2.055043212890625	0.12050306701660156	0		3.675509521484375	0.5318661499023437	0		4.85758935546875	0.15970668029785157	0		5.999583984375	0.5096068115234375	0		-0.04094658660888672	5.94814453125	0		
-0.0020350959300994872	0.0017997280359268188	0		0.44708981323242186	-2.308673583984375	0		-1.0703095703125	0.18241697692871095	0		-0.648713134765625	-2.559553955078125	0		2.073571533203125	0.09702117156982422	0		3.639299072265625	0.5205739135742188	0		4.849345703125	0.14678118896484374	0		5.9906533203125	0.5106849060058594	0		-0.05604639053344727	5.93843701171875	0		
0.019963169097900392	-0.0017177640199661254	0		0.44302557373046875	-2.313621337890625	0		-1.1184027099609375	0.17545751953125	0		-0.6748408813476563	-2.567003662109375	0		2.0623359375	0.08321276092529296	0		3.64895263671875	0.501286376953125	0		4.8552607421875	0.1395661163330078	0		5.9939267578125	0.51952001953125	0		-0.18736692810058594	5.919302734375	0		
-0.004933800220489502	-0.001187883973121643	0		0.4151106262207031	-2.313028564453125	0		-1.1183043212890624	0.17544448852539063	0		-0.6429271240234375	-2.574725341796875	0		2.051127197265625	0.06942031097412109	0		3.6399013671875	0.4944351806640625	0		4.85535888671875	0.13950469970703125	0		5.99365234375	0.5024534912109375	0		-0.05576810836791992	5.9383837890625	0		
